<svg width="72" height="89" viewBox="0 0 72 89" fill="none" xmlns="http://www.w3.org/2000/svg">
<path d="M36.4861 87.5362C30.2659 87.5362 25.2246 82.4929 25.2246 76.2746V69.1611H47.7496V76.2746C47.7496 82.4929 42.7064 87.5362 36.4861 87.5362Z" fill="#D19078"/>
<path d="M7.74362 56.4164C12.0203 56.4164 15.4872 52.9495 15.4872 48.6728C15.4872 44.3961 12.0203 40.9292 7.74362 40.9292C3.46694 40.9292 0 44.3961 0 48.6728C0 52.9495 3.46694 56.4164 7.74362 56.4164Z" fill="#E39C83"/>
<path d="M12.3823 48.7102C12.3823 51.5033 10.1171 53.7685 7.32396 53.7685C4.53081 53.7685 2.26562 51.5033 2.26562 48.7102C2.26562 45.917 4.53081 43.6519 7.32396 43.6519C10.1171 43.6519 12.3823 45.917 12.3823 48.7102Z" fill="#D19078"/>
<path d="M71.5029 48.6728C71.5029 52.9496 68.036 56.4164 63.7592 56.4164C59.4825 56.4164 56.0156 52.9496 56.0156 48.6728C56.0156 44.396 59.4825 40.9292 63.7592 40.9292C68.036 40.9273 71.5029 44.3941 71.5029 48.6728Z" fill="#E39C83"/>
<path d="M69.2846 48.7102C69.2846 51.5033 67.0195 53.7685 64.2263 53.7685C61.4332 53.7685 59.168 51.5033 59.168 48.7102C59.168 45.917 61.4332 43.6519 64.2263 43.6519C67.0195 43.6519 69.2846 45.917 69.2846 48.7102Z" fill="#D19078"/>
<path d="M41.6159 74.6434H29.1148C16.4889 74.6434 6.25488 64.4095 6.25488 51.7835V21.2954H65.6756V50.5818C65.6775 63.8701 54.9042 74.6434 41.6159 74.6434Z" fill="#E39C83"/>
<path d="M47.3414 69.7532H24.595C14.467 69.7532 6.25781 61.544 6.25781 51.416V56.3059C6.25781 66.4339 14.467 74.6431 24.595 74.6431H47.3414C57.4694 74.6431 65.6785 66.4339 65.6785 56.3059V51.416C65.6785 61.5421 57.4675 69.7532 47.3414 69.7532Z" fill="#DB977E"/>
<path d="M27.5727 33.8262L18.548 35.5445C17.9481 35.6581 17.3633 35.2606 17.2479 34.6608C17.1343 34.0609 17.5317 33.4761 18.1316 33.3607L27.1564 31.6424C27.7563 31.5289 28.341 31.9263 28.4565 32.5262C28.5719 33.128 28.1745 33.7127 27.5727 33.8262Z" fill="#633800"/>
<path d="M52.8546 35.728L43.9112 33.6256C43.3151 33.4855 42.9442 32.8838 43.0843 32.2896C43.2243 31.6954 43.8261 31.3225 44.4203 31.4626L53.3637 33.565C53.9579 33.705 54.3307 34.3068 54.1906 34.9011C54.0506 35.4953 53.4507 35.868 52.8546 35.728Z" fill="#633800"/>
<path d="M36.3118 65.0587C44.169 65.0795 50.5501 60.4281 50.5652 54.6715L22.1133 54.5977C22.0963 60.3562 28.4547 65.0379 36.3118 65.0587Z" fill="#540000"/>
<path d="M36.0632 59.6177C33.4139 59.6177 31.2622 61.7126 31.1562 64.3354C32.7553 64.7952 34.4925 65.0526 36.3111 65.0583C37.9461 65.0621 39.5149 64.8615 40.9777 64.4944C40.9569 61.7977 38.7655 59.6177 36.0632 59.6177Z" fill="#ED1C24"/>
<path d="M50.5633 54.6734L22.1113 54.5996C22.1095 55.472 22.2552 56.3179 22.5277 57.1278H50.1564C50.4194 56.3406 50.5614 55.5193 50.5633 54.6734Z" fill="white"/>
<path d="M36.3115 65.0587C39.6988 65.0681 42.8118 64.2071 45.2586 62.7651H27.457C29.8831 64.192 32.9601 65.0511 36.3115 65.0587Z" fill="white"/>
<path d="M26.1284 40.3008C26.1284 42.5111 25.2333 44.3013 24.1282 44.3013C23.023 44.3013 22.1279 42.5092 22.1279 40.3008C22.1279 38.0905 23.023 36.3003 24.1282 36.3003C25.2314 36.3003 26.1284 38.0905 26.1284 40.3008Z" fill="#19110E"/>
<path d="M25.2615 39.2998C25.2615 39.7369 25.0628 40.0908 24.8168 40.0908C24.5708 40.0908 24.3721 39.7369 24.3721 39.2998C24.3721 38.8627 24.5708 38.5088 24.8168 38.5088C25.0628 38.5088 25.2615 38.8646 25.2615 39.2998Z" fill="white"/>
<path d="M23.6717 40.7172C23.6717 41.0635 23.5127 41.3455 23.3197 41.3455C23.1248 41.3455 22.9658 41.0654 22.9658 40.7172C22.9658 40.3709 23.1229 40.0908 23.3197 40.0908C23.5146 40.0908 23.6717 40.3709 23.6717 40.7172Z" fill="white"/>
<path d="M50.5786 40.3008C50.5786 42.5111 49.6835 44.3013 48.5784 44.3013C47.4732 44.3013 46.5781 42.5092 46.5781 40.3008C46.5781 38.0905 47.4732 36.3003 48.5784 36.3003C49.6835 36.3003 50.5786 38.0905 50.5786 40.3008Z" fill="#19110E"/>
<path d="M49.7146 39.2998C49.7146 39.7369 49.5159 40.0908 49.2699 40.0908C49.0239 40.0908 48.8252 39.7369 48.8252 39.2998C48.8252 38.8627 49.0239 38.5088 49.2699 38.5088C49.5159 38.5107 49.7146 38.8646 49.7146 39.2998Z" fill="white"/>
<path d="M48.1219 40.7172C48.1219 41.0635 47.9649 41.3455 47.7699 41.3455C47.575 41.3455 47.418 41.0654 47.418 40.7172C47.418 40.3709 47.575 40.0908 47.7699 40.0908C47.9649 40.0908 48.1219 40.3709 48.1219 40.7172Z" fill="white"/>
<path d="M32.1885 48.1426C32.1885 48.1426 33.2955 50.9092 36.6147 50.9092C39.934 50.9092 40.4884 48.1426 40.4884 48.1426" stroke="#D19078" stroke-width="0.927644" stroke-miterlimit="10" stroke-linecap="round"/>
<path d="M23.5941 50.1727C23.5941 51.3082 21.7036 52.2298 19.3703 52.2298C17.037 52.2298 15.1465 51.3101 15.1465 50.1727C15.1465 49.0373 17.037 48.1157 19.3703 48.1157C21.7036 48.1176 23.5941 49.0373 23.5941 50.1727Z" fill="#FF7575"/>
<path d="M58.7142 50.1727C58.7142 51.3082 56.8237 52.2298 54.4904 52.2298C52.1571 52.2298 50.2666 51.3101 50.2666 50.1727C50.2666 49.0373 52.1571 48.1157 54.4904 48.1157C56.8237 48.1176 58.7142 49.0373 58.7142 50.1727Z" fill="#FF7575"/>
<path d="M46.9352 88.2024H25.5949C23.271 88.2024 21.3711 86.3025 21.3711 83.9787C21.3711 81.6567 23.271 79.7549 25.5949 79.7549H46.9334C49.2553 79.7549 51.1571 81.6548 51.1571 83.9787C51.159 86.3025 49.2572 88.2024 46.9352 88.2024Z" fill="#4733D4"/>
<path d="M68.6303 25.8864C66.473 11.281 52.4296 0.00244141 35.4001 0.00244141C18.3706 0.00244141 4.32722 11.281 2.16991 25.8864C2.04501 26.7285 2.31563 27.5196 2.81711 28.1232V44.9919C2.81711 46.5228 4.06987 47.7755 5.6008 47.7755C7.13174 47.7755 8.38449 46.5228 8.38449 44.9919V29.2227H25.7035C27.4691 29.2227 29.1893 28.6644 30.6199 27.6293L32.166 26.509C34.505 24.8134 37.6766 24.8361 39.991 26.5657L41.0772 27.3776C42.6801 28.5755 44.6292 29.2246 46.6314 29.2246H62.4195V44.4904C62.4195 46.0213 63.6722 47.2741 65.2032 47.2741C66.7341 47.2741 67.9869 46.0213 67.9869 44.4904V28.1251C68.4865 27.5195 68.7552 26.7285 68.6303 25.8864Z" fill="#E37D00"/>
<path d="M68.6303 25.8864C66.473 11.281 52.4296 0.00244141 35.4001 0.00244141C18.3706 0.00244141 4.32722 11.281 2.16991 25.8864C2.04501 26.7285 2.31563 27.5196 2.81711 28.1232V44.9919C2.81711 46.5228 4.06987 47.7755 5.6008 47.7755C7.13174 47.7755 8.38449 46.5228 8.38449 44.9919V29.2227H25.7035C27.4691 29.2227 29.1893 28.6644 30.6199 27.6293L32.166 26.509C34.505 24.8134 37.6766 24.8361 39.991 26.5657L41.0772 27.3776C42.6801 28.5755 44.6292 29.2246 46.6314 29.2246H62.4195V44.4904C62.4195 46.0213 63.6722 47.2741 65.2032 47.2741C66.7341 47.2741 67.9869 46.0213 67.9869 44.4904V28.1251C68.4865 27.5195 68.7552 26.7285 68.6303 25.8864Z" fill="#E37D00"/>
<path d="M35.4009 3.71095C51.6924 3.71095 65.221 14.0415 68.2545 27.7234C68.5724 27.1879 68.7295 26.5539 68.6311 25.884C66.4738 11.2786 52.4304 0 35.4009 0C18.3714 0 4.32806 11.2786 2.17074 25.884C2.07234 26.5539 2.22942 27.186 2.54734 27.7234C5.58271 14.0434 19.1113 3.71095 35.4009 3.71095Z" fill="#F78800"/>
<path d="M5.60205 44.0645C4.07112 44.0645 2.81836 42.8117 2.81836 41.2808V44.9918C2.81836 46.5227 4.07112 47.7754 5.60205 47.7754C7.13299 47.7754 8.38574 46.5227 8.38574 44.9918V41.2808C8.38385 42.8117 7.13299 44.0645 5.60205 44.0645Z" fill="#C76D00"/>
<path d="M60.9125 25.5118H44.7762C42.7741 25.5118 40.8249 24.8646 39.2221 23.6649L38.1358 22.853C35.8215 21.1234 34.5063 21.1007 32.1673 22.7963L30.6212 23.9165C29.1906 24.9536 27.4704 25.5099 25.7048 25.5099H9.8353C9.03483 25.5099 8.38574 26.159 8.38574 26.9595V29.2209H25.7048C27.4704 29.2209 29.1906 28.6626 30.6212 27.6275L32.1673 26.5072C34.5063 24.8117 35.8233 24.8344 38.1377 26.564L39.2221 27.3758C40.8249 28.5737 42.7741 29.2228 44.7762 29.2228H62.4207V27.0201C62.4188 26.1874 61.7451 25.5118 60.9125 25.5118Z" fill="#C76D00"/>
<path d="M65.2017 43.562C63.6707 43.562 62.418 42.3093 62.418 40.7783V44.4893C62.418 46.0202 63.6707 47.273 65.2017 47.273C66.7326 47.273 67.9854 46.0202 67.9854 44.4893V40.7783C67.9854 42.3093 66.7326 43.562 65.2017 43.562Z" fill="#C76D00"/>
</svg>
