<svg width="74" height="92" viewBox="0 0 74 92" fill="none" xmlns="http://www.w3.org/2000/svg">
<path d="M39.4778 91.0706C32.7466 91.0706 27.2891 85.6149 27.2891 78.8818V71.1836H51.6648V78.8818C51.6648 85.613 46.209 91.0706 39.4778 91.0706Z" fill="#D19078"/>
<path d="M65.4679 48.5925C68.4904 48.5925 70.9406 46.1423 70.9406 43.1197C70.9406 40.0972 68.4904 37.647 65.4679 37.647C62.4454 37.647 59.9951 40.0972 59.9951 43.1197C59.9951 46.1423 62.4454 48.5925 65.4679 48.5925Z" fill="#C98A74"/>
<path d="M12.7016 51.459C17.3305 51.459 21.083 47.7065 21.083 43.0776C21.083 38.4487 17.3305 34.6963 12.7016 34.6963C8.07274 34.6963 4.32031 38.4487 4.32031 43.0776C4.32031 47.7065 8.07274 51.459 12.7016 51.459Z" fill="#E39C83"/>
<path d="M13.2071 48.5925C16.2297 48.5925 18.6799 46.1423 18.6799 43.1197C18.6799 40.0972 16.2297 37.647 13.2071 37.647C10.1846 37.647 7.73438 40.0972 7.73438 43.1197C7.73438 46.1423 10.1846 48.5925 13.2071 48.5925Z" fill="#C98A74"/>
<path d="M65.1743 51.459C69.8032 51.459 73.5556 47.7065 73.5556 43.0776C73.5556 38.4487 69.8032 34.6963 65.1743 34.6963C60.5454 34.6963 56.793 38.4487 56.793 43.0776C56.793 47.7065 60.5454 51.459 65.1743 51.459Z" fill="#E39C83"/>
<path d="M64.7198 48.5925C67.7423 48.5925 70.1926 46.1423 70.1926 43.1197C70.1926 40.0972 67.7423 37.647 64.7198 37.647C61.6973 37.647 59.2471 40.0972 59.2471 43.1197C59.2471 46.1423 61.6973 48.5925 64.7198 48.5925Z" fill="#C98A74"/>
<path d="M11.9738 44.7236C10.3861 44.7236 9.08789 43.4254 9.08789 41.8377V24.0361H14.8615V41.8377C14.8596 43.4236 13.5615 44.7236 11.9738 44.7236Z" fill="#191716"/>
<path d="M65.8566 44.2412C64.2632 44.2412 62.9707 42.9487 62.9707 41.3553V23.5537H68.7443V41.3553C68.7424 42.9506 67.45 44.2412 65.8566 44.2412Z" fill="#191716"/>
<path d="M12.9341 42.7991H11.0095C9.95167 42.7991 9.08496 41.9324 9.08496 40.8745V42.7991C9.08496 43.8569 9.95167 44.7236 11.0095 44.7236H12.9341C13.9919 44.7236 14.8586 43.8569 14.8586 42.7991V40.8745C14.8586 41.9324 13.9938 42.7991 12.9341 42.7991Z" fill="#0F0E0D"/>
<path d="M67.0582 42.3185H64.653C63.7238 42.3185 62.9688 41.5653 62.9688 40.6343V42.5589C62.9688 43.488 63.7219 44.2431 64.653 44.2431H67.0582C67.9874 44.2431 68.7424 43.4899 68.7424 42.5589V40.6343C68.7424 41.5634 67.9893 42.3185 67.0582 42.3185Z" fill="#0F0E0D"/>
<path d="M40.0477 75.033H38.0229C24.1688 75.033 12.9375 63.8017 12.9375 49.9476V22.3567C12.9375 19.5636 15.2008 17.3003 17.9939 17.3003H60.0786C62.8717 17.3003 65.135 19.5636 65.135 22.3567V49.9476C65.1331 63.8017 53.9018 75.033 40.0477 75.033Z" fill="#E39C83"/>
<path d="M45.2896 69.7419H32.781C21.8203 69.7419 12.9375 60.8572 12.9375 49.8984V55.1914C12.9375 66.1521 21.8222 75.0349 32.781 75.0349H45.2896C56.2503 75.0349 65.1331 66.1502 65.1331 55.1914V49.8984C65.1331 60.8572 56.2484 69.7419 45.2896 69.7419Z" fill="#DB977E"/>
<path d="M38.898 64.6525C45.9433 64.6715 51.664 60.5007 51.6772 55.3402L26.166 55.2739C26.1547 60.4344 31.8546 64.6355 38.898 64.6525Z" fill="#540000"/>
<path d="M38.6762 59.7744C36.3012 59.7744 34.371 61.6535 34.2764 64.0058C35.7089 64.4183 37.2682 64.6492 38.8994 64.6549C40.3641 64.6586 41.7721 64.4789 43.0835 64.1496C43.0627 61.7292 41.0984 59.7744 38.6762 59.7744Z" fill="#ED1C24"/>
<path d="M51.6792 55.3402L26.168 55.2739C26.1661 56.0555 26.2967 56.8143 26.5427 57.541H51.3139C51.5486 56.8351 51.6773 56.099 51.6792 55.3402Z" fill="white"/>
<path d="M38.8975 64.6527C41.9348 64.6603 44.7241 63.8882 46.9193 62.5957H30.959C33.1352 63.875 35.8943 64.6451 38.8975 64.6527Z" fill="white"/>
<path d="M30.0594 36.3844H20.1868C19.5056 36.3844 18.9492 35.8261 18.9492 35.1467V33.5628C18.9492 32.8815 19.5056 32.3252 20.1868 32.3252H30.0594C30.7406 32.3252 31.297 32.8834 31.297 33.5628V35.1467C31.2989 35.8261 30.7406 36.3844 30.0594 36.3844Z" fill="#0F0E0D"/>
<path d="M57.9647 36.3844H48.0921C47.4108 36.3844 46.8545 35.8261 46.8545 35.1467V33.5628C46.8545 32.8815 47.4108 32.3252 48.0921 32.3252H57.9647C58.6459 32.3252 59.2023 32.8834 59.2023 33.5628V35.1467C59.2023 35.8261 58.6459 36.3844 57.9647 36.3844Z" fill="#0F0E0D"/>
<path d="M35.3076 48.0908C35.3076 48.0908 36.2689 50.4961 39.1567 50.4961C42.0426 50.4961 42.5251 48.0908 42.5251 48.0908" stroke="#C98A74" stroke-width="0.927644" stroke-miterlimit="10" stroke-linecap="round"/>
<path d="M27.7028 42.0763C27.7028 44.4683 26.7339 46.4061 25.5379 46.4061C24.3419 46.4061 23.373 44.4683 23.373 42.0763C23.373 39.6844 24.3419 37.7466 25.5379 37.7466C26.7339 37.7466 27.7028 39.6863 27.7028 42.0763Z" fill="#19110E"/>
<path d="M55.1276 42.0763C55.1276 44.4683 54.1587 46.4061 52.9627 46.4061C51.7667 46.4061 50.7979 44.4683 50.7979 42.0763C50.7979 39.6844 51.7667 37.7466 52.9627 37.7466C54.1568 37.7466 55.1276 39.6863 55.1276 42.0763Z" fill="#19110E"/>
<path d="M26.7689 40.9945C26.7689 41.4676 26.5532 41.8499 26.2883 41.8499C26.0233 41.8499 25.8076 41.4676 25.8076 40.9945C25.8076 40.5214 26.0233 40.1392 26.2883 40.1392C26.5532 40.1392 26.7689 40.5233 26.7689 40.9945Z" fill="white"/>
<path d="M25.0428 42.5285C25.0428 42.9032 24.8725 43.2078 24.6606 43.2078C24.4505 43.2078 24.2783 42.9051 24.2783 42.5285C24.2783 42.1519 24.4486 41.8491 24.6606 41.8491C24.8725 41.8491 25.0428 42.1538 25.0428 42.5285Z" fill="white"/>
<path d="M54.1918 40.9945C54.1918 41.4676 53.9761 41.8499 53.7111 41.8499C53.4443 41.8499 53.2305 41.4676 53.2305 40.9945C53.2305 40.5214 53.4462 40.1392 53.7111 40.1392C53.9761 40.1392 54.1918 40.5233 54.1918 40.9945Z" fill="white"/>
<path d="M52.4657 42.5285C52.4657 42.9032 52.2954 43.2078 52.0834 43.2078C51.8734 43.2078 51.7012 42.9051 51.7012 42.5285C51.7012 42.1519 51.8715 41.8491 52.0834 41.8491C52.2954 41.8491 52.4657 42.1538 52.4657 42.5285Z" fill="white"/>
<path d="M24.7241 50.3163C24.7241 51.5444 22.6785 52.5417 20.1541 52.5417C17.6297 52.5417 15.584 51.5463 15.584 50.3163C15.584 49.0862 17.6297 48.0908 20.1541 48.0908C22.6785 48.0908 24.7241 49.0881 24.7241 50.3163Z" fill="#F07E87"/>
<path d="M58.1609 52.5417C60.6849 52.5417 62.731 51.5454 62.731 50.3163C62.731 49.0872 60.6849 48.0908 58.1609 48.0908C55.6369 48.0908 53.5908 49.0872 53.5908 50.3163C53.5908 51.5454 55.6369 52.5417 58.1609 52.5417Z" fill="#F07E87"/>
<path d="M53.229 91.8711H26.0469C23.2026 91.8711 20.875 89.5435 20.875 86.6992C20.875 83.855 23.2026 81.5273 26.0469 81.5273H53.229C56.0733 81.5273 58.4009 83.855 58.4009 86.6992C58.4009 89.5435 56.0733 91.8711 53.229 91.8711Z" fill="#ABA648"/>
<path d="M68.7403 25.1161H9.08496V11.3755H62.0735C65.756 11.3755 68.7403 14.3598 68.7403 18.0423V25.1161Z" fill="#191716"/>
<path d="M62.2637 11.3755H9.08398V13.177H62.2637C65.8403 13.177 68.7394 16.0761 68.7394 19.6527V17.8512C68.7413 14.2765 65.8403 11.3755 62.2637 11.3755Z" fill="#2E2A28"/>
<path d="M55.1128 24.9283H19.9732C8.9425 24.9283 0.000976562 15.9868 0.000976562 4.95615C0.000976562 2.21977 2.21882 0 4.95709 0H40.0967C51.1274 0 60.0689 8.94149 60.0689 19.9722C60.0689 22.7104 57.8491 24.9283 55.1128 24.9283Z" fill="#1F1C1B"/>
<path d="M4.95525 3.60498H40.0948C50.3061 3.60498 58.714 11.2729 59.908 21.1625C60.0027 20.7802 60.0689 20.3847 60.0689 19.9722C60.0689 8.94149 51.1274 0 40.0967 0H4.95709C2.22071 0 0.000976562 2.21787 0.000976562 4.95615C0.000976562 5.77555 0.0653013 6.57792 0.161813 7.37082C0.695463 5.21162 2.6314 3.60498 4.95525 3.60498Z" fill="#3D3835"/>
<path d="M55.1137 21.3251H19.9741C9.76283 21.3251 1.35498 13.6572 0.160894 3.76758C0.0662748 4.14984 0 4.54534 0 4.95788C0 15.9886 8.94152 24.93 19.9722 24.93H55.1118C57.8482 24.93 60.0679 22.7122 60.0679 19.9739C60.0679 19.1545 60.0036 18.3522 59.9071 17.5593C59.3753 19.7185 57.4394 21.3251 55.1137 21.3251Z" fill="#141211"/>
</svg>
