<svg width="89" height="103" viewBox="0 0 89 103" fill="none" xmlns="http://www.w3.org/2000/svg">
<path d="M63.2098 88.2758H23.6308C12.0664 88.2758 2.60449 78.8139 2.60449 67.2495V32.7723C2.60449 24.3531 9.49278 23.0322 17.9101 23.0322H71.8675C78.6706 23.0322 84.2361 23.0322 84.2361 29.8353V67.2495C84.2361 78.8139 74.7742 88.2758 63.2098 88.2758Z" fill="#A8431E"/>
<path d="M63.2098 84.5643H23.6308C12.0664 84.5643 2.60449 75.1024 2.60449 63.5381V67.249C2.60449 78.8134 12.0664 88.2752 23.6308 88.2752H63.2098C74.7742 88.2752 84.2361 78.8134 84.2361 67.249V63.5381C84.2361 75.1024 74.7742 84.5643 63.2098 84.5643Z" fill="#873618"/>
<path d="M43.8155 102.728C36.8951 102.728 31.2842 97.117 31.2842 90.1966V76.0303H56.3468V90.1966C56.3468 97.117 50.736 102.728 43.8155 102.728Z" fill="#E09981"/>
<path d="M19.6626 52.5134C19.6626 56.7259 16.2469 60.1416 12.0344 60.1416C7.82201 60.1416 4.40625 56.7259 4.40625 52.5134C4.40625 48.301 7.82201 44.8853 12.0344 44.8853C16.2469 44.8853 19.6626 48.301 19.6626 52.5134Z" fill="#F2A78C"/>
<path d="M16.6968 52.5129C16.6968 55.0866 14.6096 57.1739 12.036 57.1739C9.46232 57.1739 7.375 55.0866 7.375 52.5129C7.375 49.9393 9.46232 47.8521 12.036 47.8521C14.6096 47.8502 16.6968 49.9374 16.6968 52.5129Z" fill="#E39C83"/>
<path d="M82.3179 52.5134C82.3179 56.7259 78.9022 60.1416 74.6897 60.1416C70.4773 60.1416 67.0615 56.7259 67.0615 52.5134C67.0615 48.301 70.4773 44.8853 74.6897 44.8853C78.9022 44.8853 82.3179 48.301 82.3179 52.5134Z" fill="#F2A78C"/>
<path d="M79.3502 52.5129C79.3502 55.0866 77.2629 57.1739 74.6893 57.1739C72.1156 57.1739 70.0283 55.0866 70.0283 52.5129C70.0283 49.9393 72.1156 47.8521 74.6893 47.8521C77.2629 47.8502 79.3502 49.9374 79.3502 52.5129Z" fill="#E39C83"/>
<path d="M43.4979 88.1987C25.9707 88.1987 11.7627 73.9907 11.7627 56.4635V37.0193C11.7627 29.1773 18.1192 22.8208 25.9612 22.8208H61.0326C68.8747 22.8208 75.2311 29.1773 75.2311 37.0193V56.4654C75.233 73.9907 61.0251 88.1987 43.4979 88.1987Z" fill="#F2A78C"/>
<path d="M44.9977 83.8404H42.0021C25.3037 83.8404 11.7656 70.3024 11.7656 53.604V57.9621C11.7656 74.6605 25.3037 88.1985 42.0021 88.1985H44.9977C61.6961 88.1985 75.2341 74.6605 75.2341 57.9621V53.604C75.2341 70.3042 61.6961 83.8404 44.9977 83.8404Z" fill="#EBA187"/>
<path d="M27.5546 56.2359C28.8338 56.2359 29.8708 54.1627 29.8708 51.6053C29.8708 49.0479 28.8338 46.9746 27.5546 46.9746C26.2753 46.9746 25.2383 49.0479 25.2383 51.6053C25.2383 54.1627 26.2753 56.2359 27.5546 56.2359Z" fill="#211803"/>
<path d="M58.6092 56.2359C59.8885 56.2359 60.9255 54.1627 60.9255 51.6053C60.9255 49.0479 59.8885 46.9746 58.6092 46.9746C57.33 46.9746 56.293 49.0479 56.293 51.6053C56.293 54.1627 57.33 56.2359 58.6092 56.2359Z" fill="#211803"/>
<path d="M26.0271 49.7257C25.6581 49.8392 24.1271 50.2064 22.7078 48.9366C22.6189 48.8571 22.4845 48.9498 22.5375 49.0577C22.8592 49.7124 23.5007 50.8119 24.4393 51.4648C24.5188 51.5216 24.498 51.6408 24.4015 51.6597C24.006 51.7316 23.2206 51.8376 22.4977 51.7032C22.3918 51.6843 22.3237 51.813 22.4051 51.8849C22.9444 52.3655 24.1971 53.2852 25.7489 53.149C27.6394 52.9843 26.4036 50.2877 26.1538 49.7805C26.1292 49.7332 26.0782 49.7105 26.0271 49.7257Z" fill="#211803"/>
<path d="M59.4531 49.9418C59.8334 50.0042 61.4003 50.1518 62.6303 48.6965C62.7079 48.6057 62.8536 48.6796 62.8158 48.7912C62.5887 49.4857 62.1062 50.6627 61.2678 51.4386C61.1959 51.5048 61.2338 51.6222 61.3322 51.626C61.7333 51.643 62.5263 51.6373 63.2245 51.4026C63.3286 51.3686 63.4119 51.4878 63.3419 51.5711C62.8745 52.1218 61.7636 53.2061 60.2062 53.2894C58.31 53.3897 59.1578 50.5473 59.3357 50.0099C59.3546 49.9625 59.402 49.9323 59.4531 49.9418Z" fill="#211803"/>
<path d="M59.8888 50.0612C59.8888 50.5967 59.6447 51.0301 59.3438 51.0301C59.0429 51.0301 58.7988 50.5967 58.7988 50.0612C58.7988 49.5256 59.0429 49.0923 59.3438 49.0923C59.6447 49.0923 59.8888 49.5256 59.8888 50.0612Z" fill="white"/>
<path d="M57.9381 51.7981C57.9381 52.222 57.745 52.5664 57.5065 52.5664C57.2681 52.5664 57.0732 52.222 57.0732 51.7981C57.0732 51.3742 57.2662 51.0298 57.5065 51.0298C57.745 51.0298 57.9381 51.3742 57.9381 51.7981Z" fill="white"/>
<path d="M28.8351 50.0612C28.8351 50.5967 28.591 51.0301 28.2901 51.0301C27.9892 51.0301 27.7451 50.5967 27.7451 50.0612C27.7451 49.5256 27.9892 49.0923 28.2901 49.0923C28.591 49.0923 28.8351 49.5256 28.8351 50.0612Z" fill="white"/>
<path d="M26.8835 51.7981C26.8835 52.222 26.6905 52.5664 26.452 52.5664C26.2136 52.5664 26.0205 52.222 26.0205 51.7981C26.0205 51.3742 26.2136 51.0298 26.452 51.0298C26.6886 51.0298 26.8835 51.3742 26.8835 51.7981Z" fill="white"/>
<path d="M39.5498 61.5713C39.5498 61.5713 40.6398 63.615 43.908 63.615C47.178 63.615 47.7211 61.5713 47.7211 61.5713" stroke="#BA7F6B" stroke-width="0.943729" stroke-miterlimit="10" stroke-linecap="round" stroke-linejoin="round"/>
<path d="M30.1787 67.6912C30.296 74.9542 36.2343 80.7883 43.5181 80.7524C50.7999 80.7164 56.6815 74.8255 56.7288 67.5625L30.1787 67.6912Z" fill="#540000"/>
<path d="M56.7288 67.5625L30.1787 67.6912C30.1995 68.9402 30.3944 70.1475 30.7369 71.2905H56.1686C56.5225 70.1078 56.7212 68.8569 56.7288 67.5625Z" fill="white"/>
<path d="M43.5165 80.7539C47.1991 80.7369 50.5221 79.2192 52.916 76.7856H33.9922C36.4125 79.2476 39.7866 80.771 43.5165 80.7539Z" fill="white"/>
<path d="M43.4853 74.9546C42.2098 74.9546 39.623 75.5715 39.4072 76.7864H47.5634C47.3476 75.5715 44.7608 74.9546 43.4853 74.9546Z" fill="#ED1C24"/>
<path d="M18.6096 46.5057C18.9862 45.762 19.4687 45.1943 20.0478 44.672C20.6117 44.1403 21.2968 43.7656 21.997 43.4325C23.4295 42.8288 25.0134 42.6888 26.5065 42.8629C26.6957 42.88 26.885 42.8913 27.0723 42.9121L27.623 43.0219L28.7263 43.247C29.4264 43.4798 30.155 43.669 30.8401 43.9434C31.5119 44.2387 32.212 44.496 32.8649 44.8272L34.8122 45.8472C35.3042 46.1065 35.4953 46.7139 35.238 47.2078C34.9787 47.6998 34.3712 47.891 33.8773 47.6317C33.8584 47.6222 33.8414 47.6128 33.8243 47.6014L33.7581 47.5655L31.9906 46.4944C31.3983 46.1443 30.7738 45.8736 30.1645 45.5557C29.5476 45.2605 28.906 45.0543 28.274 44.795L27.3013 44.5339L26.813 44.4014C26.6503 44.3711 26.4857 44.3541 26.3211 44.3295C25.0096 44.0892 23.6622 44.1327 22.4341 44.5603C21.838 44.8045 21.2381 45.0751 20.7385 45.4952C20.2333 45.885 19.7583 46.4035 19.4593 46.9107L19.4309 46.958C19.2984 47.1794 19.0127 47.2532 18.7894 47.1226C18.5755 46.9939 18.4998 46.7234 18.6096 46.5057Z" fill="#793016"/>
<path d="M67.4338 46.5814C67.0648 45.8339 66.586 45.2624 66.0126 44.7344C65.4524 44.197 64.7711 43.8166 64.0748 43.4779C62.6479 42.861 61.064 42.7077 59.5709 42.8686C59.3817 42.8837 59.1924 42.8931 59.0051 42.9139L58.4544 43.018L57.3493 43.2338C56.6472 43.459 55.9167 43.6425 55.2298 43.9112C54.5561 44.2008 53.854 44.4525 53.1974 44.7761L51.2407 45.779C50.7449 46.0326 50.5499 46.6401 50.8035 47.134C51.0571 47.6298 51.6646 47.8247 52.1604 47.5711C52.1774 47.5616 52.1963 47.5522 52.2134 47.5427L52.2777 47.5048L54.0546 46.4489C54.6507 46.1045 55.2771 45.8377 55.8902 45.5254C56.5091 45.2359 57.1543 45.0353 57.7883 44.7817L58.7629 44.53L59.2511 44.4033C59.4139 44.3749 59.5785 44.3578 59.7431 44.3351C61.0564 44.1062 62.4038 44.163 63.6282 44.6001C64.2224 44.8499 64.8185 45.1261 65.3162 45.55C65.8176 45.9437 66.287 46.4659 66.5841 46.9769L66.6124 47.0261C66.743 47.2494 67.0288 47.3251 67.2521 47.1964C67.4621 47.0696 67.5416 46.799 67.4338 46.5814Z" fill="#793016"/>
<path d="M22.7518 66.2258C25.6102 66.2258 27.9275 65.1278 27.9275 63.7733C27.9275 62.4188 25.6102 61.3208 22.7518 61.3208C19.8934 61.3208 17.5762 62.4188 17.5762 63.7733C17.5762 65.1278 19.8934 66.2258 22.7518 66.2258Z" fill="#FF7575"/>
<path d="M64.1581 66.2258C67.0165 66.2258 69.3337 65.1278 69.3337 63.7733C69.3337 62.4188 67.0165 61.3208 64.1581 61.3208C61.2996 61.3208 58.9824 62.4188 58.9824 63.7733C58.9824 65.1278 61.2996 66.2258 64.1581 66.2258Z" fill="#FF7575"/>
<path d="M22.7518 66.2258C25.6102 66.2258 27.9275 65.1278 27.9275 63.7733C27.9275 62.4188 25.6102 61.3208 22.7518 61.3208C19.8934 61.3208 17.5762 62.4188 17.5762 63.7733C17.5762 65.1278 19.8934 66.2258 22.7518 66.2258Z" fill="#FF7575"/>
<path d="M64.1582 61.3208C67.0176 61.3208 69.3339 62.4184 69.3339 63.7733L64.1582 61.3208Z" fill="#FF7575"/>
<path d="M57.8003 102.728H29.742C26.8959 102.728 24.5664 100.399 24.5664 97.5526C24.5664 94.7065 26.8959 92.377 29.742 92.377H57.8003C60.6465 92.377 62.976 94.7065 62.976 97.5526C62.9779 100.399 60.6484 102.728 57.8003 102.728Z" fill="#7C96CC"/>
<path d="M28.4834 35.2154L38.4392 22.8184C39.2245 21.8401 39.0694 20.4094 38.091 19.6241L34.4785 16.7231C27.1209 10.8151 16.3665 11.9903 10.4585 19.3459L0.502674 31.7429C-0.282663 32.7213 -0.127506 34.1519 0.850854 34.9372L4.4634 37.8382C11.821 43.7481 22.5735 42.573 28.4834 35.2154Z" fill="#B54820"/>
<path d="M38.0493 19.5918L28.4834 31.5043C22.5754 38.8619 11.8209 40.0371 4.46335 34.1272L0.890539 31.2583L0.500721 31.7428C-0.284616 32.7212 -0.129459 34.1518 0.848901 34.9371L4.4615 37.8381C11.8191 43.7461 22.5735 42.571 28.4815 35.2153L38.4372 22.8183C39.2226 21.84 39.0674 20.4093 38.0891 19.624L38.0493 19.5918Z" fill="#9E3F1C"/>
<path d="M0.500724 33.5993L10.4566 21.2023C16.3646 13.8447 27.1189 12.6696 34.4765 18.5776L38.0891 21.4786C38.371 21.7057 38.564 21.9914 38.706 22.298C39.1109 21.3802 38.9085 20.2807 38.0891 19.6222L34.4765 16.7211C27.1189 10.8131 16.3646 11.9883 10.4566 19.344L0.500724 31.7409C-0.0575276 32.4373 -0.119973 33.3551 0.23201 34.114C0.31149 33.9399 0.373935 33.7563 0.500724 33.5993Z" fill="#D45425"/>
<path d="M53.4654 36.9523L22.3944 19.0126C20.8616 18.1269 20.3355 16.1664 21.2211 14.6336L22.7086 12.0562C29.3641 0.527803 44.1076 -3.42346 55.636 3.23393L86.7069 21.1736C88.2398 22.0593 88.7658 24.0179 87.8802 25.5527L86.3928 28.1301C79.7354 39.6585 64.9938 43.6097 53.4654 36.9523Z" fill="#B54820"/>
<path d="M22.7088 15.7671C29.3643 4.23876 44.1078 0.287492 55.6362 6.94488L86.7072 24.8847C87.1254 25.1269 87.4622 25.4542 87.7215 25.8251L87.8785 25.5527C88.7642 24.0198 88.2381 22.0593 86.7053 21.1736L55.6343 3.23393C44.104 -3.42346 29.3624 0.527803 22.7069 12.0562L21.2176 14.6336C20.5742 15.7482 20.684 17.0824 21.3766 18.0702L22.7088 15.7671Z" fill="#D45425"/>
<path d="M86.3928 24.4193C79.7373 35.9477 64.9938 39.899 53.4654 33.2416L22.3944 15.3018C21.9762 15.0596 21.6394 14.7322 21.3801 14.3613L21.2211 14.6357C20.3355 16.1685 20.8616 18.129 22.3944 19.0147L53.4654 36.9544C64.9938 43.6099 79.7373 39.6605 86.3928 28.1321L87.8802 25.5547C88.5236 24.4401 88.4138 23.106 87.7231 22.1182L86.3928 24.4193Z" fill="#9E3F1C"/>
<path d="M12.2278 52.7163C11.1434 52.7163 10.2559 51.8288 10.2559 50.7445V40.7716C10.2559 39.6873 11.1434 38.7998 12.2278 38.7998C13.3121 38.7998 14.1996 39.6873 14.1996 40.7716V50.7445C14.1996 51.8288 13.3121 52.7163 12.2278 52.7163Z" fill="#9E3F1C"/>
<path d="M75.3058 52.7159C74.2215 52.7159 73.334 51.8284 73.334 50.7441V37.0622C73.334 35.9779 74.2215 35.0903 75.3058 35.0903C76.3902 35.0903 77.2777 35.9779 77.2777 37.0622V50.7441C77.2777 51.8284 76.3902 52.7159 75.3058 52.7159Z" fill="#9E3F1C"/>
</svg>
