<svg width="74" height="90" viewBox="0 0 74 90" fill="none" xmlns="http://www.w3.org/2000/svg">
<path d="M65.1436 83.7957H8.09406C4.1352 83.7957 0.923828 80.5862 0.923828 76.6255V30.688H72.3138V76.6255C72.3138 80.5862 69.1044 83.7957 65.1436 83.7957Z" fill="#6E4C3F"/>
<path d="M65.1436 80.0857H8.09406C4.1352 80.0857 0.923828 76.8763 0.923828 72.9155V76.6265C0.923828 80.5853 4.13331 83.7967 8.09406 83.7967H65.1436C69.1025 83.7967 72.3138 80.5872 72.3138 76.6265V72.9155C72.3138 76.8763 69.1044 80.0857 65.1436 80.0857Z" fill="#52392F"/>
<path d="M36.8593 89.2234C30.658 89.2234 25.6318 84.1972 25.6318 77.9959V65.3037H48.0887V77.9959C48.0868 84.1972 43.0607 89.2234 36.8593 89.2234Z" fill="#E39C83"/>
<path d="M13.6705 45.7767C13.6705 49.552 10.6106 52.612 6.83527 52.612C3.05998 52.612 0 49.552 0 45.7767C0 42.0014 3.05998 38.9414 6.83527 38.9414C10.6106 38.9414 13.6705 42.0014 13.6705 45.7767Z" fill="#F2A78C"/>
<path d="M11.0141 45.7761C11.0141 48.0829 9.14443 49.9526 6.83762 49.9526C4.5308 49.9526 2.66113 48.0829 2.66113 45.7761C2.66113 43.4693 4.5308 41.5996 6.83762 41.5996C9.14443 41.5996 11.0141 43.4693 11.0141 45.7761Z" fill="#CC8E76"/>
<path d="M13.6705 45.7767C13.6705 49.552 10.6106 52.612 6.83527 52.612C3.05998 52.612 0 49.552 0 45.7767C0 42.0014 3.05998 38.9414 6.83527 38.9414C10.6106 38.9414 13.6705 42.0014 13.6705 45.7767Z" fill="#F2A78C"/>
<path d="M11.0141 45.7761C11.0141 48.0829 9.14443 49.9526 6.83762 49.9526C4.5308 49.9526 2.66113 48.0829 2.66113 45.7761C2.66113 43.4693 4.5308 41.5996 6.83762 41.5996C9.14443 41.5996 11.0141 43.4693 11.0141 45.7761Z" fill="#E39C83"/>
<path d="M66.3939 51.6359C70.1689 51.6359 73.2291 48.5756 73.2291 44.8006C73.2291 41.0256 70.1689 37.9653 66.3939 37.9653C62.6188 37.9653 59.5586 41.0256 59.5586 44.8006C59.5586 48.5756 62.6188 51.6359 66.3939 51.6359Z" fill="#F2A78C"/>
<path d="M66.3933 48.9765C68.6999 48.9765 70.5698 47.1066 70.5698 44.8C70.5698 42.4934 68.6999 40.6235 66.3933 40.6235C64.0867 40.6235 62.2168 42.4934 62.2168 44.8C62.2168 47.1066 64.0867 48.9765 66.3933 48.9765Z" fill="#E39C83"/>
<path d="M36.8585 77.5077C20.0068 77.5077 6.34766 63.8467 6.34766 46.9969V30.1755C6.34766 23.9629 11.3833 18.9272 17.596 18.9272H56.1343C62.3394 18.9272 67.3712 23.9572 67.3712 30.1642V46.9988C67.3693 63.8466 53.7082 77.5077 36.8585 77.5077Z" fill="#F2A78C"/>
<path d="M36.8604 73.1143C20.0088 73.1143 6.34961 59.4533 6.34961 42.6035V46.9976C6.34961 63.8493 20.0107 77.5084 36.8604 77.5084C53.7121 77.5084 67.3713 63.8474 67.3713 46.9976V42.6035C67.3713 59.4533 53.7102 73.1143 36.8604 73.1143Z" fill="#EBA187"/>
<path d="M24.9648 55.5524C25.0708 62.0603 30.3922 67.2871 36.9171 67.2568C43.442 67.2246 48.7123 61.9449 48.7539 55.437L24.9648 55.5524Z" fill="#540000"/>
<path d="M48.7549 55.437L24.9658 55.5524C24.9847 56.6727 25.1607 57.7533 25.4673 58.7771H48.2553C48.5695 57.7173 48.7473 56.597 48.7549 55.437Z" fill="white"/>
<path d="M36.9174 67.255C40.2177 67.2399 43.1944 65.8792 45.3385 63.6992H28.3809C30.5533 65.9076 33.5773 67.272 36.9174 67.255Z" fill="white"/>
<path d="M36.8886 62.0581C35.7456 62.0581 33.4274 62.6107 33.2344 63.6988H40.5427C40.3497 62.6107 38.0316 62.0581 36.8886 62.0581Z" fill="#ED1C24"/>
<path d="M22.9464 52.8538C22.9464 54.0668 20.8704 55.0508 18.3082 55.0508C15.7459 55.0508 13.6699 54.0668 13.6699 52.8538C13.6699 51.6408 15.7459 50.6567 18.3082 50.6567C20.8704 50.6567 22.9464 51.6408 22.9464 52.8538Z" fill="#FF7575"/>
<path d="M60.0479 52.8538C60.0479 54.0668 57.972 55.0508 55.4097 55.0508C52.8474 55.0508 50.7715 54.0668 50.7715 52.8538C50.7715 51.6408 52.8474 50.6567 55.4097 50.6567C57.972 50.6567 60.0479 51.6408 60.0479 52.8538Z" fill="#F9848B"/>
<path d="M22.9464 52.8538C22.9464 54.0668 20.8704 55.0508 18.3082 55.0508C15.7459 55.0508 13.6699 54.0668 13.6699 52.8538C13.6699 51.6408 15.7459 50.6567 18.3082 50.6567C20.8704 50.6567 22.9464 51.6408 22.9464 52.8538Z" fill="#F9848B"/>
<path d="M55.4102 50.6567C57.9724 50.6567 60.0484 51.6408 60.0484 52.8538L55.4102 50.6567Z" fill="#F9848B"/>
<path d="M15.2488 36.2451C15.5857 35.579 16.019 35.07 16.5376 34.6026C17.0428 34.1257 17.6579 33.7907 18.2842 33.4917C19.5673 32.9505 20.9884 32.8256 22.3245 32.9808C22.4929 32.9959 22.6632 33.0054 22.8316 33.0262L23.3255 33.1246L24.3133 33.3252C24.9416 33.5334 25.5945 33.7018 26.2076 33.9497C26.8094 34.2146 27.4358 34.4455 28.0224 34.7426L29.7672 35.6566C30.2081 35.8875 30.3784 36.4325 30.1475 36.8753C29.9167 37.3162 29.3717 37.4865 28.9289 37.2557C28.9137 37.2481 28.8967 37.2386 28.8816 37.2292L28.8248 37.1951L27.2409 36.2338C26.7091 35.9197 26.1508 35.6774 25.6039 35.3917C25.0514 35.1267 24.4761 34.9432 23.9103 34.7104L23.0398 34.4758L22.6026 34.3565C22.4569 34.33 22.3093 34.313 22.1617 34.2922C20.9865 34.0765 19.7792 34.1162 18.6797 34.4985C18.1461 34.718 17.6086 34.9602 17.1602 35.3368C16.7079 35.6869 16.2821 36.1505 16.0134 36.6047L15.9869 36.6482C15.8695 36.8469 15.6122 36.9131 15.4116 36.7958C15.2186 36.6804 15.1504 36.4401 15.2488 36.2451Z" fill="#3D2A23"/>
<path d="M58.993 36.3114C58.6618 35.6415 58.2341 35.1306 57.7194 34.6575C57.2179 34.1768 56.6067 33.8362 55.9841 33.5315C54.7067 32.979 53.2875 32.8408 51.9477 32.9846C51.7792 32.9979 51.6089 33.0055 51.4405 33.0244L50.9466 33.119L49.9569 33.312C49.3267 33.5145 48.6739 33.6773 48.0569 33.9195C47.4533 34.1787 46.8231 34.4039 46.2365 34.6953L44.4841 35.5942C44.0413 35.8213 43.8653 36.3663 44.0924 36.8091C44.3195 37.252 44.8645 37.428 45.3073 37.2009C45.3243 37.1933 45.3395 37.1838 45.3546 37.1744L45.4133 37.1403L47.0048 36.1941C47.5384 35.8857 48.1005 35.6472 48.6492 35.3671C49.2037 35.1079 49.7809 34.9281 50.3486 34.701L51.221 34.4758L51.66 34.3623C51.8076 34.3377 51.9533 34.3225 52.101 34.3017C53.278 34.0974 54.4853 34.1466 55.581 34.5402C56.1128 34.7635 56.6483 35.0114 57.093 35.3918C57.5415 35.7456 57.9635 36.213 58.2285 36.6691L58.2531 36.7126C58.3704 36.9132 58.6259 36.9813 58.8265 36.864C59.0195 36.7486 59.0895 36.5064 58.993 36.3114Z" fill="#3D2A23"/>
<path d="M33.1982 49.0103C33.1982 49.0103 34.1747 50.8402 37.1041 50.8402C40.0335 50.8402 40.5218 49.0103 40.5218 49.0103" stroke="#D4917A" stroke-width="0.845515" stroke-miterlimit="10" stroke-linecap="round" stroke-linejoin="round"/>
<path d="M23.2635 45.7761C24.409 45.7761 25.3376 43.918 25.3376 41.6261C25.3376 39.3341 24.409 37.4761 23.2635 37.4761C22.118 37.4761 21.1895 39.3341 21.1895 41.6261C21.1895 43.918 22.118 45.7761 23.2635 45.7761Z" fill="#211803"/>
<path d="M22.1244 38.7558C21.71 38.8693 20.5329 39.068 19.4145 38.1048C19.2972 38.0045 19.1212 38.1162 19.178 38.2619C19.4297 38.9166 19.9652 39.982 20.9663 40.7428C21.0855 40.8336 21.0117 41.0191 20.8641 41.0039C20.4856 40.9642 19.9652 40.8752 19.4978 40.6747C19.3653 40.6179 19.2404 40.7768 19.3237 40.8942C19.7343 41.4751 20.5178 42.3873 21.4886 42.5462C22.7565 42.7544 22.4083 39.6414 22.3042 38.875C22.2928 38.7879 22.2096 38.7331 22.1244 38.7558Z" fill="#211803"/>
<path d="M50.5008 45.7765C51.7142 45.7765 52.6978 43.8092 52.6978 41.3824C52.6978 38.9556 51.7142 36.9883 50.5008 36.9883C49.2874 36.9883 48.3037 38.9556 48.3037 41.3824C48.3037 43.8092 49.2874 45.7765 50.5008 45.7765Z" fill="#211803"/>
<path d="M51.6207 38.3305C52.0408 38.4251 53.2254 38.5689 54.2965 37.5565C54.4101 37.4505 54.5898 37.5546 54.5406 37.7022C54.3192 38.3683 53.8329 39.4564 52.8678 40.2626C52.7542 40.3572 52.8337 40.5407 52.9813 40.518C53.3579 40.4613 53.8745 40.3477 54.3306 40.1263C54.4611 40.0639 54.5917 40.2171 54.5141 40.3383C54.1319 40.9381 53.3901 41.8843 52.4287 42.0887C51.1722 42.3555 51.3766 39.2312 51.4447 38.4591C51.4542 38.3702 51.5336 38.3115 51.6207 38.3305Z" fill="#211803"/>
<path d="M24.411 40.3105C24.411 40.7893 24.1915 41.1791 23.9228 41.1791C23.6541 41.1791 23.4346 40.7912 23.4346 40.3105C23.4346 39.8317 23.6541 39.4419 23.9228 39.4419C24.1915 39.4419 24.411 39.8317 24.411 40.3105Z" fill="white"/>
<path d="M51.8778 40.3105C51.8778 40.7893 51.6583 41.1791 51.3896 41.1791C51.119 41.1791 50.9014 40.7912 50.9014 40.3105C50.9014 39.8317 51.1209 39.4419 51.3896 39.4419C51.6602 39.4438 51.8778 39.8317 51.8778 40.3105Z" fill="white"/>
<path d="M22.6094 42.5897C22.7943 42.5897 22.9443 42.3228 22.9443 41.9936C22.9443 41.6643 22.7943 41.3975 22.6094 41.3975C22.4244 41.3975 22.2744 41.6643 22.2744 41.9936C22.2744 42.3228 22.4244 42.5897 22.6094 42.5897Z" fill="white"/>
<path d="M49.7444 42.5573C49.9586 42.5573 50.1323 42.2489 50.1323 41.8685C50.1323 41.4881 49.9586 41.1797 49.7444 41.1797C49.5301 41.1797 49.3564 41.4881 49.3564 41.8685C49.3564 42.2489 49.5301 42.5573 49.7444 42.5573Z" fill="white"/>
<path d="M45.8885 89.4679H28.0699C25.5189 89.4679 23.4316 87.3806 23.4316 84.8296C23.4316 82.2787 25.5189 80.1914 28.0699 80.1914H45.8885C48.4394 80.1914 50.5267 82.2787 50.5267 84.8296C50.5267 87.3806 48.4394 89.4679 45.8885 89.4679Z" fill="#A46BA7"/>
<path d="M72.3516 30.8439C72.2267 13.7917 56.291 0 36.6367 0C16.9844 0 1.04866 13.7917 0.921875 30.8439H50.1881C51.0699 30.8439 51.8969 30.4162 52.4078 29.6971L54.5538 26.6693C55.0345 25.9899 56.0412 25.9899 56.5219 26.6693L58.7095 29.7558C59.1939 30.4389 59.9792 30.8458 60.8157 30.8458L72.3516 30.8439Z" fill="#795446"/>
<path d="M60.8157 28.9892C59.9792 28.9892 59.1939 28.5824 58.7095 27.8992L56.5219 24.8127C56.0412 24.1334 55.0345 24.1334 54.5538 24.8127L52.4078 27.8406C51.8988 28.5597 51.0718 28.9873 50.1881 28.9873H1.04299C0.995683 29.6043 0.92566 30.2155 0.921875 30.8419H50.1881C51.0699 30.8419 51.8969 30.4142 52.4078 29.6951L54.5538 26.6673C55.0345 25.9879 56.0412 25.9879 56.5219 26.6673L58.7095 29.7537C59.1939 30.4369 59.9792 30.8438 60.8157 30.8438H72.3516C72.3478 30.2174 72.2778 29.6061 72.2305 28.9892H60.8157Z" fill="#5C4035"/>
<path d="M8.46159 30.8433V59.8553C8.46159 60.6085 7.67814 61.2235 6.72249 61.2235C5.76495 61.2235 4.9834 60.6085 4.9834 59.8553V30.8433H8.46159Z" fill="#6E4C3F"/>
<path d="M68.6979 30.7852L68.7566 59.8029C68.7566 60.5844 67.9731 61.2222 67.0175 61.2222C66.0599 61.2222 65.2784 60.5826 65.2784 59.8029L65.2197 30.7852H68.6979Z" fill="#6E4C3F"/>
<path d="M36.6386 3.71095C54.8414 3.71095 69.7136 13.7235 71.9295 29.0177H72.2361C72.1112 11.9655 56.2909 0 36.6386 0C16.9862 0 1.13753 11.9939 1.01074 29.0461H1.3173C3.53327 13.7519 18.4358 3.71095 36.6386 3.71095Z" fill="#8F6353"/>
</svg>
