<svg width="194" height="194" viewBox="0 0 194 194" fill="none" xmlns="http://www.w3.org/2000/svg">
<path d="M192.616 110.924C192.897 110.643 193.052 110.264 193.052 109.871V84.8697C193.052 84.4771 192.897 84.0981 192.616 83.8172C192.332 83.5431 191.963 83.3875 191.57 83.3875L126.365 83.5939C133.824 75.5127 135.313 73.868 135.662 73.4585L172.711 40.0744C173.313 39.533 173.371 38.6057 172.836 37.9966L156.372 19.1777C155.841 18.5685 154.914 18.4941 154.298 19.022L116.078 51.4822C115.848 51.6819 115.604 51.8951 115.381 52.1252C115.313 52.1929 113.499 54.0474 110.406 57.198L109.665 1.45854C109.658 0.653131 108.992 0 108.183 0H83.181C82.3722 0 81.7056 0.653131 81.6954 1.45854L80.89 62.2876L42.2538 18.6802C41.9865 18.3824 41.6176 18.2064 41.2217 18.1827C40.8291 18.1523 40.4365 18.3012 40.1489 18.5685C40.1489 18.5685 17.3909 39.3841 17.2487 39.5161C16.9239 39.8139 16.7445 40.2369 16.7682 40.6802C16.7817 41.066 16.9543 41.4281 17.2284 41.6887C18.0203 42.4975 37.4958 63.1506 56.3316 83.1201L56.9814 83.8071L1.47547 83.9865C0.659898 83.9865 0 84.6531 0 85.4687V109.266C0 110.078 0.659898 110.748 1.47547 110.748L57.6514 110.924L36.3147 132.65C24.9678 144.217 17.0118 152.311 16.9374 152.393C16.6633 152.673 16.5076 153.059 16.5178 153.452C16.5245 153.851 16.687 154.223 16.9746 154.497L35.6548 172.311C37.2927 173.875 38.2436 174.778 38.8359 175.296C38.9035 175.401 38.9915 175.506 39.1032 175.607C39.3266 175.824 39.5939 175.949 39.8748 176C39.9052 176.01 39.9255 176.01 39.9492 176.01C40.3858 176.068 40.8528 175.919 41.1878 175.58C41.2217 175.543 41.2589 175.496 41.2961 175.452C42.1929 174.46 55.0558 160.582 69.9018 144.555L79.9323 133.733L79.1607 191.546C79.154 191.939 79.3096 192.325 79.5905 192.606C79.8748 192.887 80.2504 193.052 80.643 193.052H110.704C111.103 193.052 111.482 192.897 111.756 192.606C112.037 192.325 112.186 191.939 112.186 191.546L111.503 140.041L153.57 176.274C154.186 176.802 155.107 176.741 155.648 176.135L172.267 157.448C172.809 156.839 172.755 155.919 172.162 155.371C172.162 155.371 127.218 114.112 124.988 112.068C124.87 111.926 124.552 111.57 124.173 111.14L191.577 111.354C191.983 111.347 192.342 111.198 192.616 110.924Z" fill="white"/>
</svg>
